<svg width="86" height="35" fill="none" xmlns="http://www.w3.org/2000/svg"><path d="M75.821 12.078c-1.28 0-2.493.146-3.611.405a20.51 20.51 0 00-3.748-4.963 18.09 18.09 0 00-1.536-1.32C62.8 2.738 53.57.5 43.408.5c-10.16 0-19.39 2.238-23.495 5.683-.609.472-1.104.896-1.558 1.338a20.513 20.513 0 00-3.748 4.962 16.064 16.064 0 00-3.611-.405c-5.657 0-10.087 2.74-10.087 6.237s4.43 6.236 10.087 6.236c.61 0 1.203-.037 1.781-.099.828 3.443 2.854 6.297 5.81 8.1 2.18 1.328 4.746 2.004 7.437 2.004 1.754 0 3.56-.288 5.345-.868 1.736-.565 3.457-1.634 5.117-3.177 4.27-3.97 9.575-3.97 13.845 0 1.66 1.544 3.382 2.613 5.117 3.177 4.523 1.472 9.184 1.057 12.783-1.137 2.956-1.803 4.983-4.656 5.81-8.099.577.061 1.17.1 1.78.1 5.657 0 10.088-2.74 10.088-6.237 0-3.498-4.43-6.238-10.087-6.238zm-73.15 6.236c0-2.425 3.812-4.474 8.324-4.474.984 0 1.932.102 2.817.28-1.188 2.79-1.674 5.76-1.35 8.59-.478.049-.967.078-1.467.078-4.512 0-8.324-2.049-8.324-4.474zm73.15 4.474c-.5 0-.989-.029-1.468-.077.324-2.83-.162-5.8-1.349-8.591a14.32 14.32 0 012.817-.28c4.512 0 8.324 2.05 8.324 4.474 0 2.425-3.812 4.474-8.324 4.474z" fill="url(#paint0_linear_1_132)"/><defs><linearGradient id="paint0_linear_1_132" x1="-11.59" y1="-.341" x2="88.187" y2="18.934" gradientUnits="userSpaceOnUse"><stop offset=".271" stop-color="#A3A3A3"/><stop offset=".412" stop-color="#CCC"/><stop offset=".552" stop-color="#fff"/><stop offset=".677" stop-color="#CCC"/><stop offset=".833" stop-color="#A3A3A3"/></linearGradient></defs></svg>