<svg width="62" height="50" fill="none" xmlns="http://www.w3.org/2000/svg"><path d="M61.965 13.73v25.55a7.092 7.092 0 00-5.088-2.146h-3.053V7.064a3.502 3.502 0 00-.02-.458h1.038a7.13 7.13 0 017.123 7.123zM9.05 31.027h26.457V2.536h6.106v28.492h8.14c.716.001 1.418.19 2.036.55V4.57A4.066 4.066 0 0047.719.5H11.084A10.192 10.192 0 00.909 10.676v24.433a10.16 10.16 0 018.14-4.08zm47.827 8.141H9.05a2.035 2.035 0 100 4.07h47.827a1.018 1.018 0 010 2.036H9.05a4.07 4.07 0 010-8.141h40.704a2.035 2.035 0 100-4.07H9.05a8.141 8.141 0 000 16.281h47.827a5.088 5.088 0 000-10.176z" fill="url(#paint0_linear_1_138)"/><defs><linearGradient id="paint0_linear_1_138" x1="-8.069" y1="-.706" x2="65.586" y2="6.42" gradientUnits="userSpaceOnUse"><stop offset=".271" stop-color="#A3A3A3"/><stop offset=".412" stop-color="#CCC"/><stop offset=".552" stop-color="#fff"/><stop offset=".677" stop-color="#CCC"/><stop offset=".833" stop-color="#A3A3A3"/></linearGradient></defs></svg>