<svg width="53" height="67" fill="none" xmlns="http://www.w3.org/2000/svg"><path d="M52.233 7.845v48.626c0 2.321.235 4.48-1.171 6.658a7.324 7.324 0 01-5.865 3.35c-1.143.045-2.285.005-3.426.005H10.613c-2.488 0-4.326.259-6.594-1.348a7.317 7.317 0 01-3.095-5.982V10.529c0-2.32-.235-4.48 1.17-6.658A7.325 7.325 0 017.96.52C9.103.477 10.243.517 11.385.517h31.158c2.488 0 4.325-.259 6.595 1.347a7.32 7.32 0 013.095 5.983zm-40.804 1.14v-.381c0-.061-.058-.025-.092-.024-.162.006-.32.028-.477.065a2.36 2.36 0 00-.883.412c-.592.436-.875.918-.97 1.647a2.439 2.439 0 00-.02.25c-.003.132.12.067.196.067.045 0 .21.038.211-.045a1.952 1.952 0 01.363-1.116 2.035 2.035 0 011.672-.874zm0 17.103v-.381c0-.062-.058-.027-.092-.025a2.42 2.42 0 00-1.36.477c-.592.436-.875.918-.97 1.647a2.45 2.45 0 00-.02.25c-.003.131.12.067.196.067.045 0 .21.038.211-.045a1.956 1.956 0 01.363-1.116 2.037 2.037 0 011.672-.874zm0-2.28a2.039 2.039 0 01-2.035-1.992c-.002-.083-.168-.044-.213-.044-.076 0-.198-.062-.194.068.002.085.008.168.02.251.096.728.379 1.21.97 1.646.27.2.555.332.883.41.157.039.315.06.477.066.034.002.092.038.092-.024v-.381zm0 19.383v-.382c0-.062-.058-.026-.092-.023a2.397 2.397 0 00-1.36.476c-.592.437-.875.918-.97 1.647a2.416 2.416 0 00-.02.25c-.003.132.12.067.196.067.045 0 .21.038.211-.045a1.956 1.956 0 01.363-1.116 2.038 2.038 0 011.672-.874zm0-2.28a2.036 2.036 0 01-2.035-1.992c-.002-.083-.168-.045-.213-.045-.076 0-.198-.063-.194.069.002.083.008.166.02.25.096.728.379 1.21.97 1.646.27.201.555.333.883.41.157.04.315.06.477.066.034.002.092.038.092-.023v-.382zm0 17.103a2.037 2.037 0 01-1.673-.876 1.945 1.945 0 01-.347-.909 1.796 1.796 0 01-.015-.208c-.002-.083-.168-.044-.213-.044-.076 0-.198-.062-.194.068.002.084.008.166.02.251.096.728.379 1.21.97 1.645a2.417 2.417 0 001.36.477c.034.001.092.037.092-.023v-.381zm30.296 0v.381c0 .061.058.025.093.025.162-.007.318-.028.475-.066.33-.078.614-.21.885-.412.591-.435.875-.918.97-1.646.012-.083.018-.166.02-.25.005-.133-.12-.068-.196-.068-.044 0-.21-.037-.21.044-.003.07-.008.14-.016.209a2.036 2.036 0 01-2.021 1.783zm0-17.104v.383c0 .061.058.025.093.023.162-.005.318-.027.475-.065.33-.078.614-.21.885-.411.591-.436.875-.919.97-1.647.012-.083.018-.166.02-.251.005-.132-.12-.067-.196-.067-.044 0-.21-.038-.21.045-.003.07-.008.14-.016.208a2.037 2.037 0 01-2.021 1.782zm0 2.28a2.035 2.035 0 012.035 1.994c.002.081.168.043.212.043.076 0 .198.063.195-.068a2.31 2.31 0 00-.02-.25c-.096-.729-.38-1.21-.97-1.647a2.405 2.405 0 00-1.36-.476c-.036-.002-.094-.038-.094.024v.127c.002.084.002.169.002.254zm0-19.382v.381c0 .061.058.025.093.024.162-.007.318-.027.475-.066.33-.078.614-.21.885-.41.591-.437.875-.919.97-1.648.012-.083.018-.166.02-.25.005-.131-.12-.067-.196-.067-.044 0-.21-.038-.21.044-.003.07-.008.14-.016.21a2.038 2.038 0 01-2.021 1.782zm0 2.28a2.036 2.036 0 012.035 1.991c.002.083.168.045.212.045.076 0 .198.062.195-.068a2.312 2.312 0 00-.02-.25c-.096-.728-.38-1.21-.97-1.647a2.373 2.373 0 00-.885-.412 2.369 2.369 0 00-.476-.065c-.035-.002-.093-.038-.093.025v.126c.002.086.002.17.002.255zm0-17.102a2.037 2.037 0 012.035 1.992c.002.083.168.043.212.043.076 0 .198.063.195-.068a2.293 2.293 0 00-.02-.25c-.096-.728-.38-1.21-.97-1.646a2.382 2.382 0 00-.885-.412 2.413 2.413 0 00-.476-.065c-.035 0-.093-.038-.093.023v.128c.002.085.002.17.002.255zM29.754 58.014a2.035 2.035 0 01-1.673-.876 1.955 1.955 0 01-.347-.908 1.588 1.588 0 01-.016-.208c-.002-.083-.168-.045-.213-.045-.076 0-.197-.062-.194.069.002.083.009.166.02.25.096.729.379 1.21.97 1.646.272.201.555.333.884.412.158.038.315.06.476.065.034 0 .093.037.093-.023v-.382zm-6.353 0v.382c0 .061.058.025.092.024.162-.006.319-.028.477-.065.329-.079.612-.21.884-.412.59-.436.875-.918.971-1.646a2.63 2.63 0 00.02-.25c.003-.133-.12-.069-.196-.069-.045 0-.21-.037-.211.045a2.05 2.05 0 01-.363 1.117 2.04 2.04 0 01-1.674.874zm6.353-14.823v-.381c0-.062-.059-.026-.093-.024a2.417 2.417 0 00-1.36.476c-.591.437-.875.919-.971 1.648a2.298 2.298 0 00-.019.25c-.005.132.12.067.196.067.044 0 .21.038.211-.045a1.968 1.968 0 01.363-1.116 2.037 2.037 0 011.673-.875zm0-2.28a2.034 2.034 0 01-2.036-1.991c-.002-.083-.168-.045-.213-.045-.076 0-.197-.063-.194.068.002.084.009.167.02.25.096.729.379 1.211.97 1.647.272.201.555.333.884.41.158.039.315.06.476.066.034.002.093.038.093-.024v-.381zm-6.353 0v.383c0 .06.058.025.092.023a2.33 2.33 0 00.477-.065c.329-.078.612-.21.884-.411.59-.436.875-.919.971-1.647.011-.083.017-.167.02-.251.003-.132-.12-.067-.196-.067-.045 0-.21-.038-.211.045a1.956 1.956 0 01-.363 1.116 2.041 2.041 0 01-1.674.874zm0 2.28c.668 0 1.292.328 1.673.877a2.041 2.041 0 01.362 1.117c.001.081.168.043.212.043.076 0 .198.063.194-.068a2.336 2.336 0 00-.02-.25c-.095-.729-.379-1.21-.97-1.647a2.405 2.405 0 00-1.36-.476c-.034-.002-.093-.038-.093.024v.126c.002.085.002.17.002.254zm6.353-17.103v-.381c0-.062-.059-.027-.093-.025a2.424 2.424 0 00-1.36.477c-.591.436-.875.918-.971 1.647a2.326 2.326 0 00-.019.25c-.005.131.12.067.196.067.044 0 .21.038.211-.045a1.968 1.968 0 01.363-1.116 2.036 2.036 0 011.673-.874zm0-2.28a2.037 2.037 0 01-2.036-1.992c-.002-.083-.168-.044-.213-.044-.076 0-.197-.062-.194.068.002.085.009.168.02.251.096.728.379 1.21.97 1.646.272.2.555.332.884.41.158.039.315.06.476.066.034.002.093.038.093-.024v-.381zm-6.353 0v.381c0 .061.058.025.092.024a2.428 2.428 0 001.361-.477c.59-.436.875-.918.971-1.647.011-.083.017-.166.02-.25.003-.131-.12-.067-.196-.067-.045 0-.21-.038-.211.044a1.96 1.96 0 01-.363 1.117 2.042 2.042 0 01-1.674.875zm0 2.28a2.037 2.037 0 012.035 1.991c.001.083.168.045.212.045.076 0 .198.062.194-.068a2.338 2.338 0 00-.02-.25c-.095-.728-.379-1.21-.97-1.647a2.373 2.373 0 00-.884-.412 2.373 2.373 0 00-.476-.065c-.034-.002-.093-.038-.093.025v.126c.002.086.002.17.002.255zm0-17.102a2.037 2.037 0 012.035 1.992c.001.083.168.043.212.043.076 0 .198.063.194-.068a2.318 2.318 0 00-.02-.25c-.095-.728-.379-1.21-.97-1.646a2.382 2.382 0 00-.884-.412 2.416 2.416 0 00-.476-.065c-.034 0-.093-.038-.093.023v.128c.002.085.002.17.002.255zm6.353 0v-.382c0-.061-.059-.025-.093-.024a2.495 2.495 0 00-.476.065c-.328.079-.612.21-.885.412-.59.436-.874.918-.97 1.647a2.317 2.317 0 00-.019.25c-.005.132.12.067.196.067.044 0 .21.038.211-.045a1.964 1.964 0 01.363-1.116 2.034 2.034 0 011.673-.874zM27.31 58.42h-1.465v1.466h1.465V58.42zm0-17.102h-1.465v1.466h1.465v-1.466zM7.519 24.216v1.466h1.466v-1.466H7.52zm19.791 0h-1.465v1.466h1.465v-1.466zm18.324 17.102H44.17v1.466h1.465v-1.466zm-38.115 0v1.466h1.466v-1.466H7.52zm38.115-17.102H44.17v1.466h1.465v-1.466zM27.31 7.112h-1.465V8.58h1.465V7.113zm-19.791 0V8.58h1.466V7.113H7.52zm38.115 0H44.17V8.58h1.465V7.113zm0 52.774V58.42H44.17v1.467h1.465zm-38.115 0h1.466V58.42H7.52v1.467z" fill="url(#paint0_linear_1_135)"/><defs><linearGradient id="paint0_linear_1_135" x1="-6.64" y1="-1.129" x2="55.647" y2="2.621" gradientUnits="userSpaceOnUse"><stop offset=".271" stop-color="#A3A3A3"/><stop offset=".412" stop-color="#CCC"/><stop offset=".552" stop-color="#fff"/><stop offset=".677" stop-color="#CCC"/><stop offset=".833" stop-color="#A3A3A3"/></linearGradient></defs></svg>