<svg width="87" height="37" fill="none" xmlns="http://www.w3.org/2000/svg"><path d="M43.097.5C30.235.5 13.151 3.263 4.868 14.735c-.148.213-.38.365-.633.415-2.19.458-3.257 1.817-3.326 2.617.058 1.477 2.09 1.65 3.135 1.66.34 0 .675.188.855.478 5.69 8.934 20.363 14.203 40.226 14.203.228 0 .456.08.634.224 3.158 2.767 7.613 4.115 9.47.351.13-.267.38-.47.666-.542C68.889 31 74.57 29.068 82.469 20.8a1.03 1.03 0 01.981-.287c1.653.432 2.403-.181 2.566-.734.37-1.56-1.293-2.151-2.249-2.585a1.03 1.03 0 01-.507-.511C75.184 2.391 57.294.569 43.1.502L43.096.5zM12.311 11.734c16.237 2.045 20.726 3.216 34.967 14.49 1.323.915 3.045.568 4.845-1.021 8.141-6.152 13.46-9.358 23.723-11.426.523-.11 1.096.271 1.204.797.107.526-.27 1.105-.793 1.213-9.95 2.005-14.812 4.915-22.805 10.947-2.686 2.306-5.409 2.65-7.442 1.117-14.14-11.194-17.758-12.067-33.953-14.106-.53-.042-.976-.567-.935-1.101.052-.734.616-.932 1.188-.91zm66.841 8.155c0 .474-.37.92-.834 1.005-3.957.997-4.396 1.49-6.493 4.66-.181.29-.515.477-.855.478-5.969 0-7.55.831-11.561 3.862-.415.393-1.166.325-1.506-.135-.34-.46-.189-1.204.302-1.493 3.977-3.005 6.487-4.175 12.29-4.245 1.957-2.855 3.402-4.12 7.316-5.106a1.06 1.06 0 011.341.974z" fill="url(#paint0_linear_1_129)"/><defs><linearGradient id="paint0_linear_1_129" x1="-11.614" y1="-.401" x2="88.807" y2="17.734" gradientUnits="userSpaceOnUse"><stop offset=".271" stop-color="#A3A3A3"/><stop offset=".412" stop-color="#CCC"/><stop offset=".552" stop-color="#fff"/><stop offset=".677" stop-color="#CCC"/><stop offset=".833" stop-color="#A3A3A3"/></linearGradient></defs></svg>