<svg width="61" height="29" fill="none" xmlns="http://www.w3.org/2000/svg"><path d="M32.522 20.855c-.943.185-1.9.325-2.862.418a29.5 29.5 0 002.89-.24 30.715 30.715 0 006.643-1.66c4.084-1.512 8.038-3.908 11.752-7.125A49.778 49.778 0 0055.85 7.35a50.141 50.141 0 003.223-4.109c.36-.516.663-.968.98-1.487a1.156 1.156 0 00-1.975-1.2l-.034.06c-.003.005-.005.01-.01.016-.2.383-.464.845-.803 1.403-.278.457-.579.93-.893 1.403a48.449 48.449 0 01-1.943 2.717 47.912 47.912 0 01-4.434 5.018c-3.41 3.346-7.108 5.914-10.994 7.635a30.263 30.263 0 01-6.445 2.048z" fill="url(#paint0_linear_1_188)"/><path d="M39.384 19.886a31.314 31.314 0 01-6.762 1.69 30.507 30.507 0 01-6.924.12c-4.596-.437-9.008-1.897-13.06-3.942 4.173 1.79 8.627 2.949 13.115 3.094a29.363 29.363 0 006.663-.53 29.794 29.794 0 006.329-2.01c3.956-1.752 7.508-4.31 10.607-7.307-1.444-.859-4.873-2.104-10.31.591-3.248 1.61-7.6 2.61-11.963 2.994a12.76 12.76 0 001.615.948c.681.33 1.393.606 2.134.798.74.198 1.505.326 2.29.333-.766.203-1.58.203-2.375.126a9.48 9.48 0 01-2.342-.575c-.981-.375-1.9-.9-2.74-1.528a44.2 44.2 0 01-4.387.04c.259.264.532.515.82.751a9.19 9.19 0 001.94 1.265c-.782-.138-1.52-.48-2.21-.885a9.493 9.493 0 01-1.553-1.186c-3.056-.206-5.79-.76-7.733-1.669C6.638 10.244 2.8 6.29.22 10.474c0 0 5.11 10.619 14.086 15.119.63-.386 1.243-.825 1.808-1.362-.134.38-.34.734-.567 1.07-.151.226-.319.44-.497.647 1.92.87 3.883 1.493 5.853 1.9a14.739 14.739 0 003.019-.804 12.886 12.886 0 002.006-.984 10.663 10.663 0 001.852-1.389c-.134.381-.34.735-.566 1.071-.227.34-.49.654-.772.952a9.006 9.006 0 01-1.946 1.524c-.074.044-.151.082-.227.124 3.729.326 7.402-.063 10.768-.956a14.376 14.376 0 001.957-1.44 12.808 12.808 0 001.546-1.615c.473-.59.908-1.226 1.262-1.941.005.403-.068.805-.164 1.2a7.308 7.308 0 01-.397 1.16 8.71 8.71 0 01-.89 1.56c3.417-1.327 6.36-3.176 8.492-5.274.002-.182 0-.363-.005-.547a10.706 10.706 0 00-.305-2.294c.267.303.473.655.657 1.017.166.329.3.673.415 1.026 1.934-2.167 3.003-4.55 2.876-6.877-3.325 2.743-7.053 5.03-11.097 6.526z" fill="url(#paint1_linear_1_188)"/><defs><linearGradient id="paint0_linear_1_188" x1="25.166" y1="-.525" x2="61.923" y2="3.562" gradientUnits="userSpaceOnUse"><stop offset=".271" stop-color="#A3A3A3"/><stop offset=".412" stop-color="#CCC"/><stop offset=".552" stop-color="#fff"/><stop offset=".677" stop-color="#CCC"/><stop offset=".833" stop-color="#A3A3A3"/></linearGradient><linearGradient id="paint1_linear_1_188" x1="-7.172" y1="8.162" x2="51.766" y2="19.74" gradientUnits="userSpaceOnUse"><stop offset=".271" stop-color="#A3A3A3"/><stop offset=".412" stop-color="#CCC"/><stop offset=".552" stop-color="#fff"/><stop offset=".677" stop-color="#CCC"/><stop offset=".833" stop-color="#A3A3A3"/></linearGradient></defs></svg>