<svg width="47" height="45" fill="none" xmlns="http://www.w3.org/2000/svg"><path d="M46.04 20.201a9.97 9.97 0 00-9.936-9.936c-.205 0-.41.021-.595.021a13.475 13.475 0 00-26.195.042A10.124 10.124 0 00.22 20.366a9.854 9.854 0 002.053 6.056c-.226.102-.452.205-.657.308a1.054 1.054 0 00-.534.615.954.954 0 00.082.78c4.353 8.212 10.922 8.54 14.063 8.17a10.999 10.999 0 01-4.311 5.707 8.123 8.123 0 01-6.733.411 1.039 1.039 0 00-1.294.677c-.16.539.142 1.105.678 1.273 1.21.41 2.479.626 3.757.637a9.072 9.072 0 004.64-1.232 12.661 12.661 0 004.987-6.261c3.798 5.686 10.47 6.487 13.898 6.487.748.016 1.497-.025 2.238-.123.526-.084.9-.557.862-1.089.701.2 1.427.296 2.156.288a8.854 8.854 0 006.22-15.13 9.914 9.914 0 003.716-7.739h-.001zm-3.162 14.02v.001a6.785 6.785 0 01-6.774 6.795 6.247 6.247 0 01-2.525-.513 12.252 12.252 0 00-4.23-7.33 9.95 9.95 0 00-4.7-2.031c4.29-5.727 1.54-13.18 1.416-13.528A1.026 1.026 0 0024.793 17c-7.698 2.402-9.854 7.041-10.428 9.895a11.418 11.418 0 00-10.018-1.17 7.888 7.888 0 01-2.074-5.358 8.07 8.07 0 017.904-8.047c.496.003.921-.353 1.005-.842a11.405 11.405 0 0116.411-8.18 11.402 11.402 0 016.068 8.282.966.966 0 00.431.678c.218.16.492.227.76.185a6.352 6.352 0 011.252-.124 7.872 7.872 0 014.003 14.658 1.026 1.026 0 00-.062 1.724 6.79 6.79 0 012.834 5.522z" fill="url(#paint0_linear_1_167)"/><defs><linearGradient id="paint0_linear_1_167" x1="-6.518" y1="-1.111" x2="48.931" y2="3.259" gradientUnits="userSpaceOnUse"><stop offset=".271" stop-color="#A3A3A3"/><stop offset=".412" stop-color="#CCC"/><stop offset=".552" stop-color="#fff"/><stop offset=".677" stop-color="#CCC"/><stop offset=".833" stop-color="#A3A3A3"/></linearGradient></defs></svg>