<svg width="46" height="46" fill="none" xmlns="http://www.w3.org/2000/svg"><path d="M37.8 4.37a.707.707 0 00.628 1.169l4.373-.605a.709.709 0 00-.194-1.403l-2.372.328a25.903 25.903 0 012.318-2.007.708.708 0 00-.416-1.269 18.893 18.893 0 00-5.65.746.709.709 0 00.394 1.36 17.522 17.522 0 013.188-.612A27.336 27.336 0 0037.8 4.37z" fill="url(#paint0_linear_1_158)"/><path d="M42.097 19.855a21.69 21.69 0 00-5.055.905.709.709 0 00.413 1.355c.729-.222 1.47-.404 2.218-.542l-2.162 1.67a.708.708 0 00.524 1.263l3.22-.417a.707.707 0 10-.182-1.404l-.63.082 2.127-1.645a.708.708 0 00-.474-1.267h.001z" fill="url(#paint1_linear_1_158)"/><path d="M37.71 13.383a11.41 11.41 0 012.889-.664c-.633.598-1.228 1.268-1.675 2.053a.709.709 0 00.697 1.053l2.439-.29a.708.708 0 10-.168-1.405l-.8.095c.571-.61 1.237-1.156 1.89-1.69a.708.708 0 00-.398-1.254c-1.812-.13-3.668.14-5.37.775a.709.709 0 00.495 1.327z" fill="url(#paint2_linear_1_158)"/><path d="M21.856 26.744a5.032 5.032 0 002.456-.26.707.707 0 10-.49-1.328 3.652 3.652 0 01-1.765.188.708.708 0 10-.201 1.401z" fill="url(#paint3_linear_1_158)"/><path d="M5.002 32.095c.015.065.02.13.039.197.137.502.3.828.429 1.09.154.31.239.48.253.871.02.566-.139.9-.322 1.286-.198.413-.421.883-.385 1.56.065 1.119.77 1.974 1.421 2.53-.772 1.112-1.344 2.52-1.697 4.208-.088.425.018.86.29 1.194.27.33.67.52 1.096.52H39.29c.427 0 .826-.19 1.096-.52.272-.334.378-.769.29-1.197-.543-2.578-1.584-4.48-3.084-5.682a9.481 9.481 0 01.622-2.928c.354-.904.686-1.32.979-1.687.266-.335.542-.68.722-1.247.043-.133.075-.264.1-.394 1.23-.018 3.132-.149 4.231-1.458.81-.96.922-2.172.973-3.438.207-5.745.173-11.513-.1-17.143-.071-1.53-.585-2.56-1.536-3.066-.55-.283-1.152-.378-1.726-.449a120.179 120.179 0 00-9.897-.757l-.171-.17c-1.75-1.728-3.132-3.093-5.33-3.517a7.404 7.404 0 00-3.05.06 3.866 3.866 0 01-1.478.06 9.74 9.74 0 00-3.699.155c-2.588.622-4.17 2.174-4.841 2.832a13.82 13.82 0 00-.564.585 634.794 634.794 0 01-4.39-.038l-1.504-.016c-1.969-.017-4.36.18-5.465 1.976-.564.909-.607 1.965-.643 2.812-.085 1.94-.206 3.914-.324 5.822C.31 19.281.11 22.522.06 25.734v2.138c.014.655.086 1.61.543 2.358.912 1.484 2.745 1.81 4.397 1.863l.002.002zm9.274-12.267c.03.1.057.199.096.3.081.215.189.431.308.646.04.403.086.793.13 1.159l.028.222c.042.342.083.669.126.99a1.138 1.138 0 01-.502-.102c-.784-.37-.904-1.736-.956-2.332a7.152 7.152 0 01-.038-.64c.267-.045.537-.132.808-.243zm-1.702-1.172a2.263 2.263 0 01-.194-.061l.101-.087c.425-.349 1.006-.654 1.69-.915-.049.244-.082.5-.09.77-.406.227-.97.44-1.507.293zm19.377 1.407c-.003.262-.023.5-.039.661-.052.583-.172 1.95-.956 2.32-.057.027-.126.032-.188.048.085-.758.106-1.517.095-2.265.192-.287.35-.593.463-.922.192.068.403.12.625.159zm-.442-2.378c.693.288 1.148.586 1.428.818l.104.09a2.16 2.16 0 01-.194.062c-.456.124-.928-.014-1.285-.18a5.16 5.16 0 00-.053-.79zm-15.938 14.36l2.872-.014c-.002.383-.014.767-.044 1.151a60.15 60.15 0 01-2.736 1.401 12.321 12.321 0 00-.091-2.539l-.001.001zm2.344-8.923c.124.014.242.02.357.02 1.05 0 1.77-.531 2.413-1.006.295-.217.574-.417.871-.57a3.186 3.186 0 00-.263 1.005c-.056.775.302 1.477.913 1.788a.706.706 0 00.952-.31.709.709 0 00-.309-.951c-.08-.04-.158-.225-.144-.426.02-.287.168-.602.343-.977.047-.1.093-.207.138-.313.302.086.545.235.838.425.522.34 1.171.764 2.333.856.495.036 1.851.067 3.069-.555-.089 1.804-.471 3.354-1.577 4.755-1.57 1.996-3.291 2.55-4.457 2.663-3.156.299-5.332-2.259-5.568-2.55-1.044-1.294-1.29-2.653-1.514-4.442a3.729 3.729 0 001.605.589zm4.17-9.054c.166-.21.332-.43.498-.669.336-.484.628-.999.9-1.525 1.265.93 2.796 1.499 4.33 1.576.041.002.098.005.148.01v.007c.058.343.119.686.179 1.03a28.148 28.148 0 00-5.443-.458c-.205.003-.408.021-.612.03zm-6.12 14.493a6.34 6.34 0 01.577-.947c.062.085.115.17.183.254.186.23.702.82 1.492 1.424.075.438.128.88.166 1.324l-2.938.015a4.56 4.56 0 01.162-1.173 5.8 5.8 0 01.358-.897zm-.473 7.674a61.068 61.068 0 003.922-1.996.706.706 0 00.361-.549 17.463 17.463 0 00-.004-3.446 7.145 7.145 0 003.093.722c.216 0 .438-.01.663-.032a7.06 7.06 0 002.108-.547c-.1 1.1-.1 2.205.008 3.303a.707.707 0 00.36.549 60.148 60.148 0 004.737 2.368c-1.942.684-3.881 1.146-5.784 1.363-3.326.386-6.62.024-9.578-1.032.046-.234.083-.469.115-.704v.001zM41.687 7.748c.462.058.905.124 1.241.298.471.25.733.882.78 1.879.271 5.592.304 11.32.099 17.021-.043 1.046-.12 1.962-.642 2.581-.671.8-1.961.932-3.187.953-.308-1.287-1.297-2.464-2.265-3.614-1.265-1.504-2.46-2.924-2.12-4.42.083-.367.3-.957.53-1.582.633-1.728 1.072-3.021.93-3.928-.113-.718-.315-1.133-.549-1.614a13.613 13.613 0 01-.835-2.099 14.918 14.918 0 01-.55-2.304c-.108-.643-.201-1.197-.594-2.04a7.933 7.933 0 00-1.158-1.811c2.91.14 5.655.36 8.32.68zM14.379 6.023c.642-.63 1.978-1.942 4.186-2.472a8.326 8.326 0 013.156-.13c.638.1 1.31.074 2-.08a5.998 5.998 0 012.47-.052c1.78.342 2.965 1.513 4.633 3.163 1.21 1.194 1.875 1.852 2.419 3.022.312.67.38 1.07.481 1.679.099.584.221 1.31.596 2.496.374 1.184.685 1.823.912 2.29.22.457.343.707.423 1.216.097.614-.479 2.182-.86 3.22-.257.698-.478 1.301-.581 1.756-.496 2.183 1.052 4.023 2.418 5.645 1.208 1.436 2.35 2.793 1.938 4.082-.103.318-.253.508-.482.795-.32.4-.758.95-1.19 2.053a10.801 10.801 0 00-.65 2.604 20.274 20.274 0 00-1.333-.53 54.406 54.406 0 01-2.727-1.081 58.524 58.524 0 01-5.169-2.518 16.198 16.198 0 01.149-3.68 9.445 9.445 0 001.794-1.765c.799-1.012 1.264-2.086 1.54-3.18.375-.004.733-.08 1.058-.235 1.518-.718 1.689-2.65 1.761-3.471a8.06 8.06 0 00.044-.884c.719-.234 1.139-.605 1.224-1.116.12-.72-.49-1.225-.75-1.44-.698-.577-1.654-1.042-2.827-1.397a6.434 6.434 0 00-.426-.776.708.708 0 00-.417-.302c-.178-.046-.36-.078-.537-.12-.094-.53-.188-1.063-.283-1.63-.036-.173-.091-.435-.282-.673-.35-.43-.864-.46-1.186-.478-1.356-.068-2.714-.605-3.798-1.483.3-.755.552-1.538.732-2.358a.708.708 0 00-1.383-.303c-.38 1.738-1.059 3.32-2.013 4.702a9.491 9.491 0 01-1.398 1.628 28.064 28.064 0 00-4.46.85.698.698 0 00-.356.232 4.75 4.75 0 00-.397.596c-1.35.366-2.441.871-3.226 1.515-.238.196-.872.716-.751 1.437.085.515.504.885 1.221 1.116-.003.31.017.604.044.881.073.826.243 2.758 1.761 3.475.336.159.704.238 1.092.238.081 0 .165-.015.248-.021.13.613.312 1.196.57 1.764a7.855 7.855 0 00-1.074 1.635 7.228 7.228 0 00-.453 1.153c-.323 1.212-.214 2.048-.1 2.932.097.737.205 1.573.08 2.842l-.084.815c-.163 1.399-.39 2.29-1.117 2.99-1.005.963-2.696 1.285-4.116.784a5.024 5.024 0 01-1.082-.552c-.847-.563-1.354-1.25-1.39-1.884-.018-.315.088-.537.248-.872.219-.46.492-1.033.46-1.947-.027-.697-.217-1.08-.4-1.45-.114-.228-.232-.464-.333-.835-.49-1.777.202-3.548.658-4.449.393-.782.714-1.057 1.055-1.348.375-.321.8-.685 1.105-1.569.388-1.123.207-1.963.047-2.704-.147-.684-.287-1.33-.031-2.3.151-.572.322-.826.558-1.178.236-.35.53-.786.834-1.58.503-1.312.486-2.199.469-3.056-.01-.532-.021-1.082.087-1.791.454-3.005 2.38-5.138 3.193-5.92l-.002.004zM1.477 25.747c.048-3.168.246-6.393.438-9.51.118-1.915.24-3.894.325-5.85.037-.868.091-1.576.434-2.128.729-1.185 2.554-1.323 4.245-1.305l1.504.016c1.097.012 2.194.02 3.29.029-.837 1.211-1.634 2.797-1.927 4.732-.126.828-.114 1.467-.102 2.031.016.82.029 1.469-.375 2.521a5.673 5.673 0 01-.687 1.298c-.265.395-.54.803-.752 1.606-.342 1.299-.143 2.22.016 2.96.145.667.259 1.195 0 1.944-.18.52-.36.675-.688.955-.392.336-.879.752-1.397 1.786-.413.814-.983 2.233-.976 3.84-1.218-.06-2.474-.302-3.012-1.179-.31-.506-.328-1.366-.335-1.633v-2.113h-.001z" fill="url(#paint4_linear_1_158)"/><defs><linearGradient id="paint0_linear_1_158" x1="34.883" y1=".457" x2="43.817" y2="1.493" gradientUnits="userSpaceOnUse"><stop offset=".271" stop-color="#A3A3A3"/><stop offset=".412" stop-color="#CCC"/><stop offset=".552" stop-color="#fff"/><stop offset=".677" stop-color="#CCC"/><stop offset=".833" stop-color="#A3A3A3"/></linearGradient><linearGradient id="paint1_linear_1_158" x1="35.613" y1="19.739" x2="43.207" y2="20.535" gradientUnits="userSpaceOnUse"><stop offset=".271" stop-color="#A3A3A3"/><stop offset=".412" stop-color="#CCC"/><stop offset=".552" stop-color="#fff"/><stop offset=".677" stop-color="#CCC"/><stop offset=".833" stop-color="#A3A3A3"/></linearGradient><linearGradient id="paint2_linear_1_158" x1="35.8" y1="11.136" x2="43.606" y2="11.992" gradientUnits="userSpaceOnUse"><stop offset=".271" stop-color="#A3A3A3"/><stop offset=".412" stop-color="#CCC"/><stop offset=".552" stop-color="#fff"/><stop offset=".677" stop-color="#CCC"/><stop offset=".833" stop-color="#A3A3A3"/></linearGradient><linearGradient id="paint3_linear_1_158" x1="20.73" y1="25.07" x2="24.914" y2="25.749" gradientUnits="userSpaceOnUse"><stop offset=".271" stop-color="#A3A3A3"/><stop offset=".412" stop-color="#CCC"/><stop offset=".552" stop-color="#fff"/><stop offset=".677" stop-color="#CCC"/><stop offset=".833" stop-color="#A3A3A3"/></linearGradient><linearGradient id="paint4_linear_1_158" x1="-6.6" y1=".687" x2="48.199" y2="5.074" gradientUnits="userSpaceOnUse"><stop offset=".271" stop-color="#A3A3A3"/><stop offset=".412" stop-color="#CCC"/><stop offset=".552" stop-color="#fff"/><stop offset=".677" stop-color="#CCC"/><stop offset=".833" stop-color="#A3A3A3"/></linearGradient></defs></svg>