<svg width="46" height="46" fill="none" xmlns="http://www.w3.org/2000/svg"><path d="M4.72 31c.28 0 .5-.22.5-.5V26h1v-2h-3v2h1v4.5c0 .28.22.5.5.5z" fill="url(#paint0_linear_1_172)"/><path d="M35.22 27c1.1 0 2-.9 2-2s-.9-2-2-2-2 .9-2 2 .9 2 2 2z" fill="url(#paint1_linear_1_172)"/><path d="M5.22 15.5c0-.28.22-.5.5-.5h14c.28 0 .5.22.5.5V19h8.5c.28 0 .5.22.5.5V33h12V8H2.72a2.5 2.5 0 00-2.5 2.5V19h5v-3.5zm30 6.5c1.65 0 3 1.35 3 3s-1.35 3-3 3-3-1.35-3-3 1.35-3 3-3z" fill="url(#paint2_linear_1_172)"/><path d="M37.22 4h-1V.5c0-.28-.22-.5-.5-.5s-.5.22-.5.5V4h-1v3h3V4z" fill="url(#paint3_linear_1_172)"/><path d="M26.22 4h3v3h-3V4z" fill="url(#paint4_linear_1_172)"/><path d="M9.72 19h9.5v-3h-13v3h3.5z" fill="url(#paint5_linear_1_172)"/><path d="M6.72 23h2.5v-3h-9v3h6.5z" fill="url(#paint6_linear_1_172)"/><path d="M9.72 39H.22v3h16.43c-1.79-1.89-4.31-3-6.93-3z" fill="url(#paint7_linear_1_172)"/><path d="M44.221 11h-2v5h2c.55 0 1-.45 1-1v-3c0-.55-.45-1-1-1z" fill="url(#paint8_linear_1_172)"/><path d="M2.53 43l1.5 3h37.38l1.5-3H2.53z" fill="url(#paint9_linear_1_172)"/><path d="M28.72 34H.22v4h9.5c3.2 0 6.27 1.49 8.25 4h27.25v-8h-16.5z" fill="url(#paint10_linear_1_172)"/><path d="M44.221 21h-2v5h2c.55 0 1-.45 1-1v-3c0-.55-.45-1-1-1z" fill="url(#paint11_linear_1_172)"/><defs><linearGradient id="paint0_linear_1_172" x1="2.779" y1="23.827" x2="6.428" y2="23.948" gradientUnits="userSpaceOnUse"><stop offset=".271" stop-color="#A3A3A3"/><stop offset=".412" stop-color="#CCC"/><stop offset=".552" stop-color="#fff"/><stop offset=".677" stop-color="#CCC"/><stop offset=".833" stop-color="#A3A3A3"/></linearGradient><linearGradient id="paint1_linear_1_172" x1="32.633" y1="22.901" x2="37.474" y2="23.276" gradientUnits="userSpaceOnUse"><stop offset=".271" stop-color="#A3A3A3"/><stop offset=".412" stop-color="#CCC"/><stop offset=".552" stop-color="#fff"/><stop offset=".677" stop-color="#CCC"/><stop offset=".833" stop-color="#A3A3A3"/></linearGradient><linearGradient id="paint2_linear_1_172" x1="-5.809" y1="7.383" x2="43.323" y2="13.619" gradientUnits="userSpaceOnUse"><stop offset=".271" stop-color="#A3A3A3"/><stop offset=".412" stop-color="#CCC"/><stop offset=".552" stop-color="#fff"/><stop offset=".677" stop-color="#CCC"/><stop offset=".833" stop-color="#A3A3A3"/></linearGradient><linearGradient id="paint3_linear_1_172" x1="33.779" y1="-.173" x2="37.428" y2="-.052" gradientUnits="userSpaceOnUse"><stop offset=".271" stop-color="#A3A3A3"/><stop offset=".412" stop-color="#CCC"/><stop offset=".552" stop-color="#fff"/><stop offset=".677" stop-color="#CCC"/><stop offset=".833" stop-color="#A3A3A3"/></linearGradient><linearGradient id="paint4_linear_1_172" x1="25.779" y1="3.926" x2="29.41" y2="4.207" gradientUnits="userSpaceOnUse"><stop offset=".271" stop-color="#A3A3A3"/><stop offset=".412" stop-color="#CCC"/><stop offset=".552" stop-color="#fff"/><stop offset=".677" stop-color="#CCC"/><stop offset=".833" stop-color="#A3A3A3"/></linearGradient><linearGradient id="paint5_linear_1_172" x1="4.309" y1="15.926" x2="18.538" y2="20.698" gradientUnits="userSpaceOnUse"><stop offset=".271" stop-color="#A3A3A3"/><stop offset=".412" stop-color="#CCC"/><stop offset=".552" stop-color="#fff"/><stop offset=".677" stop-color="#CCC"/><stop offset=".833" stop-color="#A3A3A3"/></linearGradient><linearGradient id="paint6_linear_1_172" x1="-1.103" y1="19.926" x2="9.295" y2="22.34" gradientUnits="userSpaceOnUse"><stop offset=".271" stop-color="#A3A3A3"/><stop offset=".412" stop-color="#CCC"/><stop offset=".552" stop-color="#fff"/><stop offset=".677" stop-color="#CCC"/><stop offset=".833" stop-color="#A3A3A3"/></linearGradient><linearGradient id="paint7_linear_1_172" x1="-2.196" y1="38.926" x2="14.763" y2="46.114" gradientUnits="userSpaceOnUse"><stop offset=".271" stop-color="#A3A3A3"/><stop offset=".412" stop-color="#CCC"/><stop offset=".552" stop-color="#fff"/><stop offset=".677" stop-color="#CCC"/><stop offset=".833" stop-color="#A3A3A3"/></linearGradient><linearGradient id="paint8_linear_1_172" x1="41.78" y1="10.877" x2="45.425" y2="11.046" gradientUnits="userSpaceOnUse"><stop offset=".271" stop-color="#A3A3A3"/><stop offset=".412" stop-color="#CCC"/><stop offset=".552" stop-color="#fff"/><stop offset=".677" stop-color="#CCC"/><stop offset=".833" stop-color="#A3A3A3"/></linearGradient><linearGradient id="paint9_linear_1_172" x1="-3.407" y1="42.926" x2="20.172" y2="67.49" gradientUnits="userSpaceOnUse"><stop offset=".271" stop-color="#A3A3A3"/><stop offset=".412" stop-color="#CCC"/><stop offset=".552" stop-color="#fff"/><stop offset=".677" stop-color="#CCC"/><stop offset=".833" stop-color="#A3A3A3"/></linearGradient><linearGradient id="paint10_linear_1_172" x1="-6.397" y1="33.802" x2="39.667" y2="53.857" gradientUnits="userSpaceOnUse"><stop offset=".271" stop-color="#A3A3A3"/><stop offset=".412" stop-color="#CCC"/><stop offset=".552" stop-color="#fff"/><stop offset=".677" stop-color="#CCC"/><stop offset=".833" stop-color="#A3A3A3"/></linearGradient><linearGradient id="paint11_linear_1_172" x1="41.78" y1="20.876" x2="45.425" y2="21.045" gradientUnits="userSpaceOnUse"><stop offset=".271" stop-color="#A3A3A3"/><stop offset=".412" stop-color="#CCC"/><stop offset=".552" stop-color="#fff"/><stop offset=".677" stop-color="#CCC"/><stop offset=".833" stop-color="#A3A3A3"/></linearGradient></defs></svg>