<svg width="21" height="21" fill="none" xmlns="http://www.w3.org/2000/svg"><path d="M6.5 20.5c-.55 0-1.02-.196-1.412-.587A1.927 1.927 0 014.5 18.5c0-.55.196-1.021.588-1.413A1.925 1.925 0 016.5 16.5c.55 0 1.02.196 1.412.587.392.392.588.863.588 1.413s-.196 1.021-.588 1.413A1.925 1.925 0 016.5 20.5zm10 0c-.55 0-1.02-.196-1.412-.587A1.927 1.927 0 0114.5 18.5c0-.55.196-1.021.588-1.413A1.925 1.925 0 0116.5 16.5c.55 0 1.021.196 1.413.587.391.392.587.863.587 1.413s-.196 1.021-.587 1.413a1.928 1.928 0 01-1.413.587zm-10-5c-.75 0-1.317-.33-1.7-.988-.383-.658-.4-1.312-.05-1.962L6.1 10.1 2.5 2.5H1.475a.926.926 0 01-.7-.288A.99.99 0 01.5 1.5c0-.283.096-.521.288-.713A.967.967 0 011.5.5h1.625c.183 0 .358.05.525.15a.93.93 0 01.375.425L4.7 2.5h14.75c.45 0 .758.167.925.5.167.333.158.683-.025 1.05l-3.55 6.4a2.034 2.034 0 01-.725.775 1.93 1.93 0 01-1.025.275H7.6l-1.1 2h11.025c.283 0 .517.096.7.287.183.192.275.43.275.713s-.096.52-.288.712a.965.965 0 01-.712.288h-11z" fill="url(#paint0_linear_1_11162)"/><defs><linearGradient id="paint0_linear_1_11162" x1="-2.44" y1=".006" x2="21.761" y2="1.879" gradientUnits="userSpaceOnUse"><stop offset=".271" stop-color="#A3A3A3"/><stop offset=".412" stop-color="#CCC"/><stop offset=".552" stop-color="#fff"/><stop offset=".677" stop-color="#CCC"/><stop offset=".833" stop-color="#A3A3A3"/></linearGradient></defs></svg>