<svg width="57" height="17" fill="none" xmlns="http://www.w3.org/2000/svg"><path d="M.99 6.144l8.223 4.517-4.325-.833c1.996 1.26 4.773 2.598 8.52 4.021l8.619-.18-4.571 1.576c2.253.643 4.844 1.122 7.56 1.364l4.978-3.014-2.747 3.17c2.803.118 5.668 0 8.378-.435 2.842-.452 5.516-1.258 7.718-2.524l.58 2.916a11.938 11.938 0 002.492-5.363l1.45 2.73c.985-1.936 1.154-3.657.605-5.733 2.805-1.335 5.313-3.153 7.84-4.939l-.951-1.336C40.814 13.974 23.028 13.042 10.835 8.318l.652-1.51c10.95 4.177 22.547 4.339 33.864-.826a18.176 18.176 0 00-3.636-2.852l-4.089 3.48 2.635-4.264a13.918 13.918 0 00-2.747-.957l-1.417 3.99.125-4.2a7.732 7.732 0 00-2.555.117c-4.841 1.063-9.75 2.02-16.096.584l1.833 3.847-4.226-4.487C14.11.892 12.922.588 11.94.438l2.84 3.338L9.044.227c-.72 0-1.435.044-2.119.118-2.439.289-4.585.981-5.702 2.446a2.985 2.985 0 00-.5 2.686c.075.237.172.476.267.667z" fill="url(#paint0_linear_1_11148)"/><defs><linearGradient id="paint0_linear_1_11148" x1="31.942" y1="38.538" x2="-.461" y2=".743" gradientUnits="userSpaceOnUse"><stop offset=".271" stop-color="#A3A3A3"/><stop offset=".412" stop-color="#CCC"/><stop offset=".552" stop-color="#fff"/><stop offset=".677" stop-color="#CCC"/><stop offset=".833" stop-color="#A3A3A3"/></linearGradient></defs></svg>