<svg width="28" height="27" fill="none" xmlns="http://www.w3.org/2000/svg"><path d="M13.98 0c3.57 0 4.016.013 5.417.079 1.4.066 2.353.285 3.191.611a6.407 6.407 0 012.33 1.515 6.45 6.45 0 011.514 2.33c.325.836.546 1.79.612 3.19.061 1.401.078 1.846.078 5.417 0 3.57-.013 4.017-.078 5.417-.066 1.4-.287 2.353-.612 3.191a6.416 6.416 0 01-1.515 2.33 6.458 6.458 0 01-2.329 1.514c-.837.325-1.79.546-3.19.612-1.402.061-1.847.078-5.418.078-3.57 0-4.016-.013-5.417-.078-1.4-.066-2.352-.287-3.191-.612a6.427 6.427 0 01-2.329-1.515 6.445 6.445 0 01-1.515-2.329c-.326-.837-.545-1.79-.611-3.19-.062-1.401-.079-1.847-.079-5.418 0-3.57.013-4.016.079-5.417.066-1.401.285-2.352.61-3.19a6.413 6.413 0 011.516-2.33A6.436 6.436 0 015.372.69C6.211.364 7.162.145 8.563.079 9.963.017 10.409 0 13.98 0zm0 6.571a6.571 6.571 0 100 13.142 6.571 6.571 0 000-13.142zm8.543-.328a1.643 1.643 0 10-3.287 0 1.643 1.643 0 003.287 0zM13.98 9.2a3.943 3.943 0 110 7.885 3.943 3.943 0 010-7.885z" fill="url(#paint0_linear_1_57)"/><defs><linearGradient id="paint0_linear_1_57" x1="-3.027" y1="-.649" x2="28.788" y2="1.814" gradientUnits="userSpaceOnUse"><stop offset=".271" stop-color="#A3A3A3"/><stop offset=".412" stop-color="#CCC"/><stop offset=".552" stop-color="#fff"/><stop offset=".677" stop-color="#CCC"/><stop offset=".833" stop-color="#A3A3A3"/></linearGradient></defs></svg>