<svg width="21" height="21" fill="none" xmlns="http://www.w3.org/2000/svg"><path d="M10.5 20.5a9.671 9.671 0 01-3.875-.788 10.126 10.126 0 01-3.187-2.15 10.125 10.125 0 01-2.15-3.187A9.67 9.67 0 01.5 10.5a9.64 9.64 0 01.788-3.887 10.164 10.164 0 012.15-3.175 10.14 10.14 0 013.187-2.151A9.681 9.681 0 0110.5.5a9.65 9.65 0 013.887.787 10.178 10.178 0 013.175 2.151 10.164 10.164 0 012.15 3.175A9.64 9.64 0 0120.5 10.5a9.671 9.671 0 01-.788 3.875 10.125 10.125 0 01-2.15 3.187 10.164 10.164 0 01-3.175 2.15 9.64 9.64 0 01-3.887.788zm0-2.05c.433-.6.808-1.225 1.125-1.875.317-.65.575-1.342.775-2.075H8.6c.2.733.458 1.425.775 2.075.317.65.692 1.275 1.125 1.875zm-2.6-.4a13.84 13.84 0 01-.787-1.713A14.607 14.607 0 016.55 14.5H3.6a8.304 8.304 0 001.812 2.175A7.2 7.2 0 007.9 18.05zm5.2 0a7.19 7.19 0 002.487-1.375A8.295 8.295 0 0017.4 14.5h-2.95c-.15.633-.337 1.246-.562 1.837a13.89 13.89 0 01-.788 1.713zM2.75 12.5h3.4a13.365 13.365 0 01-.15-2 13.364 13.364 0 01.15-2h-3.4a8.012 8.012 0 00-.25 2 8.012 8.012 0 00.25 2zm5.4 0h4.7a13.35 13.35 0 00.15-2 13.349 13.349 0 00-.15-2h-4.7a13.584 13.584 0 00-.15 2 13.018 13.018 0 00.15 2zm6.7 0h3.4a8.018 8.018 0 00.25-2 8.017 8.017 0 00-.25-2h-3.4a13.6 13.6 0 01.15 2 13.033 13.033 0 01-.15 2zm-.4-6h2.95a8.294 8.294 0 00-1.813-2.175A7.19 7.19 0 0013.1 2.95c.3.55.563 1.12.788 1.712.225.592.412 1.205.562 1.838zm-5.85 0h3.8a11.82 11.82 0 00-.775-2.075A12.701 12.701 0 0010.5 2.55c-.433.6-.808 1.225-1.125 1.875A11.82 11.82 0 008.6 6.5zm-5 0h2.95c.15-.633.338-1.246.563-1.838.225-.591.487-1.162.787-1.712a7.2 7.2 0 00-2.488 1.375A8.303 8.303 0 003.6 6.5z" fill="url(#paint0_linear_1_11168)"/><defs><linearGradient id="paint0_linear_1_11168" x1="-2.441" y1=".006" x2="21.767" y2="1.88" gradientUnits="userSpaceOnUse"><stop offset=".271" stop-color="#A3A3A3"/><stop offset=".412" stop-color="#CCC"/><stop offset=".552" stop-color="#fff"/><stop offset=".677" stop-color="#CCC"/><stop offset=".833" stop-color="#A3A3A3"/></linearGradient></defs></svg>