<svg width="26" height="27" fill="none" xmlns="http://www.w3.org/2000/svg"><path fill-rule="evenodd" clip-rule="evenodd" d="M3.703.183A3.703 3.703 0 000 3.885V22.4a3.703 3.703 0 003.703 3.703h18.514a3.703 3.703 0 003.702-3.703V3.885A3.703 3.703 0 0022.216.183H3.703zm2.04 7.955a2.212 2.212 0 100-4.425 2.212 2.212 0 000 4.425zm1.851 13.915V9.873H3.892v12.18h3.702zm2.459-12.18h3.703v1.63c.546-.855 1.746-2.006 3.977-2.006 2.662 0 4.108 1.764 4.108 5.12 0 .162.014.897.014.897v6.537h-3.702v-6.535c0-.898-.19-2.663-2.185-2.663-1.998 0-2.166 2.218-2.212 3.67v5.528h-3.703V9.873z" fill="url(#paint0_linear_1_55)"/><defs><linearGradient id="paint0_linear_1_55" x1="-3.811" y1="-.457" x2="27.561" y2="1.971" gradientUnits="userSpaceOnUse"><stop offset=".271" stop-color="#A3A3A3"/><stop offset=".412" stop-color="#CCC"/><stop offset=".552" stop-color="#fff"/><stop offset=".677" stop-color="#CCC"/><stop offset=".833" stop-color="#A3A3A3"/></linearGradient></defs></svg>