<svg width="16" height="20" fill="none" xmlns="http://www.w3.org/2000/svg"><path d="M8 10c.55 0 1.021-.196 1.413-.588C9.804 9.021 10 8.55 10 8a1.93 1.93 0 00-.587-1.413A1.928 1.928 0 008 6c-.55 0-1.02.196-1.412.587A1.927 1.927 0 006 8c0 .55.196 1.02.588 1.412C6.979 9.804 7.45 10 8 10zm0 9.625c-.133 0-.267-.025-.4-.075a1.2 1.2 0 01-.35-.2C4.817 17.2 3 15.204 1.8 13.363.6 11.521 0 9.8 0 8.2c0-2.5.804-4.492 2.413-5.975C4.021.742 5.883 0 8 0c2.117 0 3.979.742 5.587 2.225C15.196 3.708 16 5.7 16 8.2c0 1.6-.6 3.321-1.8 5.163-1.2 1.841-3.017 3.837-5.45 5.987a1.2 1.2 0 01-.35.2c-.133.05-.267.075-.4.075z" fill="url(#paint0_linear_1_43)"/><defs><linearGradient id="paint0_linear_1_43" x1="-2.353" y1="-.484" x2="17.052" y2=".74" gradientUnits="userSpaceOnUse"><stop offset=".271" stop-color="#A3A3A3"/><stop offset=".412" stop-color="#CCC"/><stop offset=".552" stop-color="#fff"/><stop offset=".677" stop-color="#CCC"/><stop offset=".833" stop-color="#A3A3A3"/></linearGradient></defs></svg>