<svg width="39" height="30" fill="none" xmlns="http://www.w3.org/2000/svg"><path d="M4.5 30c-1.031 0-1.914-.367-2.647-1.1C1.117 28.163.75 27.28.75 26.25V3.75c0-1.031.367-1.914 1.103-2.647C2.586.367 3.469 0 4.5 0h30c1.031 0 1.914.367 2.65 1.103.733.733 1.1 1.616 1.1 2.647v22.5c0 1.031-.367 1.914-1.1 2.65-.736.733-1.619 1.1-2.65 1.1h-30zm30-22.5l-14.016 8.766a1.92 1.92 0 01-.493.21 1.839 1.839 0 01-.491.07c-.156 0-.32-.023-.491-.07a1.92 1.92 0 01-.493-.21L4.5 7.5v18.75h30V7.5zm-15 5.625l15-9.375h-30l15 9.375zm-15-5.156V5.203v.047-.024 2.743z" fill="url(#paint0_linear_1_68)"/><defs><linearGradient id="paint0_linear_1_68" x1="-4.764" y1="-.74" x2="40.474" y2="3.636" gradientUnits="userSpaceOnUse"><stop offset=".271" stop-color="#A3A3A3"/><stop offset=".412" stop-color="#CCC"/><stop offset=".552" stop-color="#fff"/><stop offset=".677" stop-color="#CCC"/><stop offset=".833" stop-color="#A3A3A3"/></linearGradient></defs></svg>