<svg width="20" height="16" fill="none" xmlns="http://www.w3.org/2000/svg"><path d="M18 0H2C.9 0 .01.9.01 2L0 14c0 1.1.9 2 2 2h16c1.1 0 2-.9 2-2V2c0-1.1-.9-2-2-2zm-.4 4.25l-7.07 4.42c-.32.2-.74.2-1.06 0L2.4 4.25a.85.85 0 11.9-1.44L10 7l6.7-4.19a.85.85 0 11.9 1.44z" fill="url(#paint0_linear_1_47)"/><defs><linearGradient id="paint0_linear_1_47" x1="-2.941" y1="-.395" x2="21.186" y2="1.939" gradientUnits="userSpaceOnUse"><stop offset=".271" stop-color="#A3A3A3"/><stop offset=".412" stop-color="#CCC"/><stop offset=".552" stop-color="#fff"/><stop offset=".677" stop-color="#CCC"/><stop offset=".833" stop-color="#A3A3A3"/></linearGradient></defs></svg>