<svg width="27" height="27" fill="none" xmlns="http://www.w3.org/2000/svg"><path d="M26.838 2.96v20.365a2.778 2.778 0 01-2.777 2.777H9.852c.567-.95 1.296-2.315 1.585-3.431l.885-3.379c.463.885 1.817 1.632 3.258 1.632 4.286 0 7.37-3.94 7.37-8.835 0-4.692-3.83-8.203-8.759-8.203-6.133 0-9.384 4.113-9.384 8.597 0 2.082 1.11 4.674 2.881 5.502.272.127.411.07.475-.191.046-.197.289-1.163.393-1.609a.42.42 0 00-.098-.405c-.585-.711-1.06-2.019-1.06-3.24 0-3.135 2.373-6.167 6.417-6.167 3.489 0 5.936 2.378 5.936 5.78 0 3.841-1.938 6.503-4.467 6.503-1.394 0-2.435-1.151-2.105-2.569.399-1.69 1.174-3.512 1.174-4.732 0-3.067-4.368-2.644-4.368 1.446 0 1.255.422 2.112.422 2.112-1.816 7.683-2.088 7.781-1.712 11.142l.127.047H3.696A2.778 2.778 0 01.92 23.325V2.96A2.778 2.778 0 013.696.183h20.365a2.778 2.778 0 012.777 2.777z" fill="url(#paint0_linear_1_56)"/><defs><linearGradient id="paint0_linear_1_56" x1="-2.892" y1="-.457" x2="28.48" y2="1.971" gradientUnits="userSpaceOnUse"><stop offset=".271" stop-color="#A3A3A3"/><stop offset=".412" stop-color="#CCC"/><stop offset=".552" stop-color="#fff"/><stop offset=".677" stop-color="#CCC"/><stop offset=".833" stop-color="#A3A3A3"/></linearGradient></defs></svg>