<svg width="16" height="28" fill="none" xmlns="http://www.w3.org/2000/svg"><path d="M3.573 26.892l11.935-11.9c.142-.142.242-.296.3-.46.06-.166.09-.343.09-.532s-.03-.366-.09-.531a1.233 1.233 0 00-.3-.46L3.573 1.072c-.33-.33-.744-.496-1.24-.496s-.92.177-1.275.531c-.354.354-.53.768-.53 1.24s.176.885.53 1.24L11.471 14 1.058 24.412a1.66 1.66 0 00-.496 1.222c0 .484.178.903.532 1.258.354.354.767.53 1.24.53.472 0 .885-.176 1.239-.53z" fill="url(#paint0_linear_1_90)"/><defs><linearGradient id="paint0_linear_1_90" x1="18.158" y1="-.086" x2="-.522" y2=".742" gradientUnits="userSpaceOnUse"><stop offset=".271" stop-color="#A3A3A3"/><stop offset=".412" stop-color="#CCC"/><stop offset=".552" stop-color="#fff"/><stop offset=".677" stop-color="#CCC"/><stop offset=".833" stop-color="#A3A3A3"/></linearGradient></defs></svg>